<?xml version="1.0" encoding="UTF-8" standalone="no"?>
<!-- Created with Inkscape (http://www.inkscape.org/) -->

<svg
   version="1.1"
   id="svg1"
   width="436"
   height="206"
   viewBox="0 0 436 206"
   xmlns="http://www.w3.org/2000/svg"
   xmlns:svg="http://www.w3.org/2000/svg">
  <defs
     id="defs1" />
  <g
     id="layer1"
     transform="translate(-17,-9)">
    <path
       style="fill:#000000"
       d="m 221.5,215 c -2.50943,0 -2.50943,0 -2.25472,-102.25 C 219.49813,11.251572 219.5147,10.5 221.5,10.5 c 1.9853,0 2.00187,0.751572 2.25472,102.25 C 224.00943,215 224.00943,215 221.5,215 Z m 0.24984,-52.32624 c 0.14771,-27.95444 0.14767,-73.404439 -9e-5,-101.000004 C 221.60198,34.07819 221.48112,56.95 221.48117,112.5 c 5e-5,55.55 0.12095,78.12819 0.26867,50.17376 z M 105.87126,200 C 39.949169,200 19.11483,199.71483 18.2,198.8 17.54,198.14 17,196.6201 17,195.42244 c 0,-1.19765 0.604441,-2.67919 1.343201,-3.29231 0.948187,-0.78692 19.549033,-1.19054 63.25,-1.37244 C 143.5,190.5 143.5,190.5 143.77911,177.23828 c 0.2791,-13.26173 0.2791,-13.26173 -4.25,-18.10371 C 137.0381,156.47148 135,153.41676 135,152.3463 c 0,-1.07047 0.54,-2.4863 1.2,-3.1463 0.66,-0.66 2.145,-1.2 3.3,-1.2 1.155,0 2.64,0.54 3.3,1.2 0.93333,0.93333 1.2,-2.04205 1.2,-13.38922 0,-12.58785 -0.24826,-14.89579 -1.80969,-16.82409 -1.79784,-2.22024 -1.83223,-2.22273 -5.25,-0.38063 -2.46598,1.3291 -5.57086,1.85986 -10.96317,1.87409 -6.85116,0.0181 -7.99097,-0.28054 -12.76557,-3.34438 -2.88349,-1.85033 -7.08106,-5.45033 -9.32795,-8 -2.24688,-2.54968 -5.242035,-6.60696 -6.655891,-9.0162 -1.413856,-2.409236 -3.653915,-7.359236 -4.977911,-11 -1.740862,-4.787077 -2.567522,-9.636503 -2.986169,-17.517726 -0.522582,-9.837865 -0.399037,-11.029678 1.269853,-12.25 C 91.578728,58.587556 94.878573,58 98.125754,58 c 3.158926,0 9.035416,0.67638 13.058866,1.503067 4.02346,0.826687 10.95892,3.28931 15.41212,5.472497 6.33256,3.104535 9.63159,5.585218 15.14089,11.385077 7.04414,7.415646 7.04414,7.415646 8.3789,4.921614 0.73412,-1.371717 3.82073,-4.769076 6.85912,-7.549686 3.10122,-2.838107 9.03337,-6.731041 13.52435,-8.875268 4.4,-2.100787 11.29192,-4.503093 15.31538,-5.338457 C 189.83883,58.68348 195.73159,58 198.91039,58 c 4.32922,0 6.19496,0.458926 7.43462,1.828741 1.15962,1.28136 1.65499,3.65636 1.65499,7.934624 0,3.358235 -0.68603,9.397802 -1.52451,13.421259 -0.83848,4.023457 -3.08572,10.618771 -4.99387,14.656255 -2.35573,4.984541 -5.58255,9.529771 -10.05275,14.160091 -4.33102,4.48616 -8.34059,7.57514 -11.71942,9.02867 -4.06168,1.74729 -6.34811,2.09955 -10.93064,1.68402 -3.18704,-0.28899 -7.32955,-1.43107 -9.20558,-2.53795 -3.24012,-1.91172 -3.49013,-1.92501 -4.99209,-0.26537 -1.25165,1.38306 -1.57464,4.12716 -1.54993,13.1684 0.0312,11.42126 0.0312,11.42126 2.4973,7.42126 1.35635,-2.2 2.9742,-5.575 3.59522,-7.5 0.62102,-1.925 1.81698,-4.2875 2.65768,-5.25 0.84071,-0.9625 2.28908,-1.75 3.21859,-1.75 0.92951,0 2.53028,0.92847 3.55726,2.06327 1.80296,1.99225 1.80636,2.23466 0.0989,7.04211 -0.97258,2.73836 -3.3773,7.72412 -5.34381,11.07947 -1.96652,3.35535 -5.09129,7.77845 -6.94392,9.8291 -2.65993,2.94422 -3.36844,4.58292 -3.36844,7.79083 0,3.68831 0.25322,4.09151 2.75,4.3788 2.24132,0.25789 2.80477,0.87481 3.04611,3.33515 0.22434,2.28706 -0.4422,3.72608 -2.75,5.93709 C 153.28117,178.10481 153,178.95689 153,184.68709 153,191 153,191 173.3,191 c 14.45556,0 20.64548,0.34548 21.5,1.2 0.66,0.66 1.2,1.94026 1.2,2.84501 0,0.90476 -0.82293,2.38976 -1.82874,3.3 -1.67198,1.51313 -9.24091,1.65499 -88.3,1.65499 z M 106.5,198 c 68.17224,0 85.46856,-0.25719 86.32035,-1.28354 0.58589,-0.70594 0.73287,-1.82133 0.32663,-2.47864 -0.52461,-0.84883 -6.66508,-1.27373 -21.1928,-1.46646 C 151.5,192.5 151.5,192.5 151.20308,185.09601 c -0.28634,-7.14019 -0.18364,-7.52085 2.88228,-10.68408 1.97461,-2.03728 2.95153,-3.87343 2.57831,-4.84602 C 156.33317,168.70466 154.92365,168 153.53138,168 151.13269,168 151,167.71448 151,162.55296 c 0,-5.01329 0.41087,-5.98877 5.15975,-12.25 2.83786,-3.74163 6.71469,-10.0694 8.61518,-14.06171 2.87683,-6.04329 3.24122,-7.51686 2.17615,-8.80019 -1.07306,-1.29296 -1.49658,-1.32413 -2.62736,-0.19335 -0.74144,0.74144 -3.2551,5.1505 -5.5859,9.79791 -2.5395,5.06352 -4.93914,8.58031 -5.98782,8.77543 -1.59835,0.29738 -1.75,-0.87889 -1.75,-13.57341 0,-13.62607 0.0504,-13.94633 2.56464,-16.30837 2.56465,-2.40936 2.56465,-2.40936 6.25,-0.29743 2.02695,1.16157 5.5911,2.43075 7.92033,2.82041 2.96976,0.49681 5.80791,0.18782 9.5,-1.03428 3.99267,-1.32159 6.84229,-3.33593 11.79173,-8.33536 3.58969,-3.62593 7.9393,-9.29261 9.66581,-12.59261 1.72651,-3.3 3.83741,-8.70869 4.6909,-12.01931 0.85348,-3.310621 1.67887,-9.835621 1.83419,-14.5 C 205.5,61.5 205.5,61.5 198,61.174639 c -4.125,-0.178948 -9.975,0.207141 -13,0.857976 -3.025,0.650836 -8.65,2.638868 -12.5,4.417848 -3.85,1.778981 -9.29309,5.060989 -12.09575,7.29335 -2.80266,2.232361 -6.40266,6.127438 -8,8.655725 -1.59734,2.528287 -3.43005,4.59769 -4.07269,4.598674 -0.64264,9.83e-4 -2.07784,-1.460712 -3.18932,-3.248212 -1.11149,-1.7875 -3.96069,-5.119697 -6.33156,-7.404882 C 136.43981,74.059932 132.25,70.781686 129.5,69.060125 126.75,67.338565 120.98927,64.820762 116.69838,63.465008 110.82698,61.609876 106.68281,61 99.948378,61 91,61 91,61 91.007554,66.75 c 0.0042,3.1625 0.478398,8.652018 1.053874,12.198929 0.575476,3.546911 2.38935,9.621911 4.03083,13.5 1.641481,3.878089 4.896572,9.526071 7.233532,12.551071 2.33697,3.025 6.41139,6.95638 9.05428,8.73641 2.64289,1.78002 6.63521,3.72916 8.87182,4.33142 2.23661,0.60225 5.68241,0.79498 7.65734,0.42828 1.97492,-0.36669 5.27914,-1.61169 7.34271,-2.76665 3.75194,-2.09992 3.75194,-2.09992 6.75,0.7724 C 146,119.37418 146,119.37418 146,135.62807 c 0,10.39957 -0.38288,16.49053 -1.06301,16.91087 -0.58466,0.36134 -1.9179,-0.11668 -2.96276,-1.06226 -1.04486,-0.94558 -2.5915,-1.45379 -3.43698,-1.12935 -0.84549,0.32445 -1.53725,1.0733 -1.53725,1.66413 0,0.59082 2.03733,3.25229 4.5274,5.91438 4.52741,4.84016 4.52741,4.84016 4.25,19.70716 C 145.5,192.5 145.5,192.5 83.042353,192.75765 c -37.743643,0.15569 -62.833543,0.63354 -63.407618,1.20762 -0.599962,0.59996 -0.478343,1.51825 0.330091,2.49235 C 21.099976,197.82539 30.896455,198 106.5,198 Z m 19.14631,-84 c -1.32986,0 -4.83056,-1.26037 -7.77932,-2.80083 -3.47741,-1.81661 -7.03153,-4.87393 -10.11419,-8.70039 C 105.13876,99.254016 103,95.789388 103,94.799605 103,93.211809 103.97376,93 111.27346,93 c 8.27346,0 8.27346,0 16,7.77212 4.2496,4.27467 7.72654,8.34763 7.72654,9.05103 0,0.7034 -1.56055,1.93094 -3.46788,2.72788 C 129.62478,113.34796 126.97617,114 125.64631,114 Z m 0.45447,-2.08595 c 0.33042,0.0473 2.06064,-0.42296 3.84493,-1.04497 3.24415,-1.13091 3.24415,-1.13091 -4.07575,-8.5 C 118.55006,95 118.55006,95 111.77669,95 c -6.77336,0 -6.77336,0 -3.2828,4.858614 1.91981,2.672236 5.2417,6.072156 7.38198,7.555366 2.14028,1.48321 5.18127,3.08316 6.75777,3.55543 1.5765,0.47228 3.13671,0.89736 3.46714,0.94464 z M 170,113.90423 c -0.825,-0.0465 -2.98367,-0.51237 -4.79703,-1.0352 -1.81337,-0.52282 -3.564,-1.64628 -3.89029,-2.49657 -0.3984,-1.03823 1.99053,-4.14501 7.27358,-9.45923 C 176.45308,93 176.45308,93 184.66752,93 c 4.51795,0 8.49763,0.458207 8.84375,1.018237 0.34612,0.560031 -0.29356,2.511467 -1.42151,4.336526 -1.12795,1.825057 -4.46495,5.601477 -7.41555,8.392037 -3.21057,3.03642 -6.93266,5.50908 -9.26947,6.15789 -2.14761,0.59629 -4.57974,1.04608 -5.40474,0.99954 z m 1.7059,-2.47037 c 1.21324,-0.2474 3.34729,-0.88378 4.74232,-1.41417 1.39504,-0.5304 4.59944,-2.86596 7.12088,-5.19015 2.52145,-2.32419 5.23646,-5.486643 6.03336,-7.027671 C 191.05136,95 191.05136,95 184.42845,95 c -6.62291,0 -6.62291,0 -13.52568,6.66406 C 167.10625,105.3293 164,108.6668 164,109.08073 c 0,0.41393 1.2375,1.21393 2.75,1.77778 1.5125,0.56385 3.74265,0.82276 4.9559,0.57535 z m -31.79252,-6.65569 c -0.84502,0.16273 -2.29622,-0.54372 -3.22489,-1.56989 C 135.36387,101.74459 135,99.378828 135,92.230276 c 0,-5.251078 0.4423,-9.385596 1.0438,-9.757349 0.5741,-0.354809 1.77041,-0.04387 2.65848,0.690983 0.88807,0.73485 2.43348,3.13609 3.43424,5.33609 1.00075,2.2 1.82281,5.575 1.82678,7.5 0.004,1.925 -0.55995,4.62101 -1.25316,5.99114 -0.6932,1.37013 -1.95175,2.62429 -2.79676,2.78703 z M 140.62756,100.5 c 0.70523,-1.65 1.29265,-3.9 1.30537,-5 0.0127,-1.1 -0.97743,-4.025 -2.20035,-6.5 -2.22349,-4.5 -2.22349,-4.5 -2.52153,2.734468 -0.17888,4.34207 0.18819,8.140246 0.91812,9.500002 1.21616,2.26553 1.21616,2.26553 2.49839,-0.73447 z m 15.7185,4.5 c -0.56376,0 -1.54726,-1.14617 -2.18554,-2.54705 C 153.52223,101.05207 153,97.829104 153,95.290805 c 0,-3.138922 0.81313,-6.002583 2.54215,-8.952947 C 157.16808,83.563428 158.78994,82 160.04215,82 161.84599,82 162,82.733596 162,91.325686 c 0,8.455061 -0.21607,9.528674 -2.31445,11.500004 C 158.4126,104.02156 156.90983,105 156.34606,105 Z m 0.47299,-3 c 0.42952,0 1.32095,-0.54 1.98095,-1.2 0.73529,-0.73529 1.19855,-4.317452 1.19626,-9.25 -0.004,-8.05 -0.004,-8.05 -2.0911,-4.626023 -1.14805,1.883187 -2.32628,4.896258 -2.6183,6.695714 -0.29201,1.799455 -0.24244,4.421166 0.11016,5.826023 C 155.74962,100.85057 156.38953,102 156.81905,102 Z M 128.77178,94 C 128.05643,94 121.74014,88.256243 114.73557,81.236096 107.73101,74.215948 102,67.915948 102,67.236096 102,66.556243 103.14502,66 104.54448,66 c 1.39947,0 5.34514,0.7035 8.76815,1.563334 3.42302,0.859834 8.4655,2.772933 11.20552,4.251331 C 129.5,74.502661 129.5,74.502661 129.78621,84.25133 130.00586,91.732737 129.76993,94 128.77178,94 Z m -1.03809,-3 C 127.88016,91 128,87.691617 128,83.648038 c 0,-7.351961 0,-7.351961 -6.75,-10.391628 -3.7125,-1.671816 -8.1,-3.334803 -9.75,-3.695526 -1.65,-0.360723 -3.9,-0.904732 -5,-1.208909 -1.1,-0.304177 3.16766,4.667193 9.48369,11.047488 C 122.29972,85.779758 127.58722,91 127.73369,91 Z m 40.49321,2 c -0.99616,0 -1.23442,-2.172575 -1.01443,-9.25 C 167.5,74.5 167.5,74.5 174,71.251208 c 3.575,-1.786835 9.06359,-3.756656 12.19686,-4.37738 3.13327,-0.620724 6.48262,-0.827065 7.44299,-0.458535 1.40512,0.539193 -0.7788,3.200608 -11.18243,13.627381 C 175.34671,87.169203 168.94298,93 168.2269,93 Z m 1.04015,-3 c 0.14688,0 5.16095,-4.909111 11.14237,-10.909135 10.8753,-10.909134 10.8753,-10.909134 5.98294,-9.880048 -2.6908,0.565997 -7.70486,2.296885 -11.14236,3.846419 C 169,75.87457 169,75.87457 169,82.937285 169,86.821778 169.12017,90 169.26705,90 Z M 106.75,87.921053 c -2.8875,-0.04342 -5.80454,-0.303268 -6.48231,-0.577436 C 99.589924,87.069448 98.620006,85.192475 98.112321,83.172564 97.604635,81.152654 96.901283,77.8125 96.549315,75.75 96.077443,72.98487 96.256608,72 97.231506,72 c 0.727173,0 4.347564,3.048793 8.045314,6.775096 3.69775,3.726303 6.72318,7.326303 6.72318,8 0,0.82102 -1.73107,1.198873 -5.25,1.145957 z M 109.5,86 c 0.275,0 0.5,-0.225 0.5,-0.5 0,-0.275 -0.225,-0.5 -0.5,-0.5 -0.275,0 -0.5,0.225 -0.5,0.5 0,0.275 0.225,0.5 0.5,0.5 z m -4.75325,-1 c 3.66967,0 3.66967,0 -0.72617,-4.479035 -2.41772,-2.463469 -4.565986,-4.308892 -4.773937,-4.100941 -0.207951,0.207951 0.118828,2.223516 0.726176,4.479034 C 101.01103,84.754685 101.2966,85 104.74675,85 Z M 98.5,75 C 98.775,75 99,74.775 99,74.5 99,74.225 98.775,74 98.5,74 98.225,74 98,74.225 98,74.5 c 0,0.275 0.225,0.5 0.5,0.5 z m 91.75,12.984687 c -4.37155,0.01275 -5.25,-0.282337 -5.25,-1.763575 0,-0.978389 2.82461,-4.578389 6.27691,-8 C 194.7292,74.7995 198.1042,72 198.77691,72 199.48085,72 200,73.330231 200,75.13398 c 0,1.72369 -0.54059,4.98619 -1.20132,7.25 -0.66072,2.263811 -1.67322,4.446629 -2.25,4.850707 -0.57677,0.404078 -3.41118,0.741578 -6.29868,0.75 z m 1.18071,-2.822664 c 4.27664,-0.340135 4.40535,-0.453863 5.51905,-4.876779 0.62716,-2.490688 0.98117,-4.687652 0.78667,-4.882143 -0.19449,-0.194491 -2.67806,2.000059 -5.51904,4.876779 -5.16543,5.230399 -5.16543,5.230399 -0.78668,4.882143 z M 203.72144,200 c -1.27679,0 -2.86144,-0.54 -3.52144,-1.2 -0.66,-0.66 -1.2,-2.1799 -1.2,-3.37756 0,-1.19765 0.65023,-2.71719 1.44496,-3.37676 0.79472,-0.65956 2.43627,-1.05216 3.64787,-0.87244 1.2116,0.17972 2.67453,1.07931 3.25094,1.9991 0.74198,1.18398 0.70506,2.42507 -0.12643,4.25 C 206.4461,199.11503 205.24587,200 203.72144,200 Z m -0.87527,-2 c 0.49992,0 1.45278,-0.65529 2.11748,-1.4562 0.66469,-0.8009 0.91823,-1.9259 0.56342,-2.5 C 205.17226,193.46971 204.26008,193 203.5,193 c -0.76008,0 -1.6734,0.47155 -2.0296,1.04789 -0.35619,0.57633 -0.39687,1.70133 -0.0904,2.5 0.30648,0.79866 0.96625,1.45211 1.46617,1.45211 z m 46.81963,-13 c -1.77143,0 -4.22092,-0.70052 -5.44329,-1.5567 C 243.00013,182.58711 242,181.34535 242,180.68384 c 0,-0.66151 0.93526,-1.78683 2.07836,-2.5007 1.50716,-0.94124 2.43698,-1.00034 3.38322,-0.21503 0.97033,0.8053 1.46298,0.67087 1.92164,-0.52437 C 249.72245,176.55971 250,172.04823 250,167.41821 250,159 250,159 253,159 c 3,0 3,0 3,10.77749 0,8.13601 -0.38154,11.32222 -1.5567,13 C 253.38255,184.29192 251.86046,185 249.6658,185 Z m -0.48723,-2.07895 c 0.92322,0.0434 2.38572,-0.62819 3.25,-1.49248 1.20635,-1.20635 1.57143,-3.7619 1.57143,-11 C 254,164.80952 253.59596,161 253,161 c -0.58931,0 -1.00629,3.59354 -1.01531,8.75 -0.008,4.8125 -0.41012,9.37341 -0.89267,10.13535 -0.58079,0.91707 -1.75869,1.16414 -3.48469,0.73095 C 246.1733,180.25638 245,180.38297 245,180.89761 c 0,0.51465 0.5625,1.1627 1.25,1.44011 0.6875,0.27741 2.00536,0.53991 2.92857,0.58333 z m 30.8547,1.93639 c -8.47596,0.0403 -9.07802,-0.0989 -11,-2.54228 C 267.91497,180.89348 267,178.95166 267,178 c 0,-0.95166 0.92265,-2.90324 2.05033,-4.33685 1.60795,-2.04418 1.8237,-3.03 1,-4.56912 C 269.47265,168.01463 269,166.4269 269,165.56574 269,164.70458 269.9,163.1 271,162 c 1.20279,-1.20279 3.33333,-2 5.34501,-2 1.9706,0 4.02502,0.7514 5,1.82874 0.91025,1.00581 1.64068,2.91831 1.62319,4.25 -0.0175,1.33169 -0.67808,3.27505 -1.46797,4.31858 -0.78989,1.04353 -1.19902,2.28103 -0.90918,2.75 0.28984,0.46897 1.57033,0.85268 2.84552,0.85268 1.2752,0 2.86082,0.65341 3.5236,1.45201 0.66279,0.79861 0.92458,2.33574 0.58177,3.41585 -0.34281,1.0801 -0.15499,2.25325 0.41738,2.607 0.57238,0.35375 1.04068,1.24995 1.04068,1.99157 0,1.02778 -2.13209,1.35853 -8.96673,1.39101 z m -1.00141,-2.18978 c 5.16544,-0.12742 6.55731,-0.45613 5.79972,-1.36967 -0.54825,-0.66111 -0.73438,-2.02887 -0.41363,-3.03947 0.46977,-1.48012 0.0558,-1.82977 -2.12846,-1.79798 -2.06382,0.03 -2.9437,-0.61029 -3.68296,-2.68026 -0.76733,-2.14854 -0.59906,-3.13105 0.80121,-4.67833 1.13652,-1.25584 1.53686,-2.70113 1.11574,-4.02796 -0.36123,-1.13814 -1.79273,-2.35445 -3.18111,-2.70291 -1.77153,-0.44462 -3.09299,-0.0649 -4.43118,1.27329 -1.6597,1.65969 -1.75156,2.31829 -0.7087,5.08114 1.01738,2.69534 0.94161,3.45778 -0.50216,5.05313 -0.93518,1.03336 -1.70033,2.99091 -1.70033,4.3501 0,1.35919 0.50295,2.97421 1.11766,3.58892 0.64165,0.64165 4.01223,1.04625 7.9142,0.95 z M 275.69805,181 c -1.30059,0 -2.66472,-0.3 -3.03138,-0.66667 C 272.3,179.96667 272,178.89677 272,177.95578 c 0,-0.94099 0.69954,-2.29145 1.55453,-3.00103 1.29786,-1.07713 1.89867,-0.94599 3.63894,0.79428 1.21375,1.21375 1.83064,2.74576 1.47686,3.66769 C 278.33617,180.28753 276.99865,181 275.69805,181 Z M 275,179 c 0.55,0 1,-0.45 1,-1 0,-0.55 -0.45,-1 -1,-1 -0.55,0 -1,0.45 -1,1 0,0.55 0.45,1 1,1 z m 0.93045,-10 c -1.57185,0 -1.9927,-0.53864 -1.75,-2.23978 0.17575,-1.23189 1.10705,-2.38988 2.06955,-2.57333 1.29971,-0.24772 1.75,0.3286 1.75,2.23979 0,1.93548 -0.51297,2.57332 -2.06955,2.57332 z m 26.30805,15.81336 c -3.07857,0.29788 -3.23377,0.14973 -3.14282,-3 0.0526,-1.82235 0.84013,-7.58836 1.75,-12.81336 C 302.5,159.5 302.5,159.5 306,159.5 c 3.41518,0 3.54938,0.15298 5.53748,6.31246 2.03747,6.31247 2.03747,6.31247 4.05667,0 1.96302,-6.13684 2.11499,-6.31246 5.46252,-6.31246 3.4086,0 3.45543,0.0605 4.6426,6 0.65959,3.3 1.5085,9.07059 1.88645,12.82354 0.68719,6.82353 0.68719,6.82353 -2.69926,6.5 -2.9444,-0.28131 -3.42471,-0.71515 -3.67946,-3.32354 -0.16114,-1.65 -0.54635,-3.675 -0.85601,-4.5 -0.34206,-0.91133 -1.12195,0.36412 -1.98726,3.25 -1.32956,4.4342 -1.64629,4.75 -4.76403,4.75 -3.10807,0 -3.42775,-0.3142 -4.60773,-4.52868 -0.69737,-2.49077 -1.50089,-4.29574 -1.78558,-4.01104 -0.2847,0.2847 -0.79028,2.2101 -1.12351,4.27868 -0.54107,3.35878 -0.95224,3.79456 -3.84438,4.0744 z m -0.12963,-2.01008 c 0.84258,-0.27708 1.73884,-2.86931 2.27293,-6.57396 0.50791,-3.52308 1.45461,-6.3363 2.23276,-6.63491 0.95145,-0.3651 1.97631,1.54042 3.4656,6.44359 1.27918,4.21141 2.65742,6.962 3.48846,6.962 0.82856,0 2.19758,-2.71208 3.44937,-6.83333 1.25234,-4.12303 2.62069,-6.83334 3.44994,-6.83334 0.92626,0 1.58814,1.84173 2.02996,5.64847 0.36056,3.10666 1.04658,6.28113 1.52447,7.05438 0.47789,0.77324 1.12488,1.14991 1.43776,0.83703 0.31288,-0.31287 -0.20219,-5.36234 -1.1446,-11.22104 -1.324,-8.23103 -2.06599,-10.65004 -3.26449,-10.64281 -1.05822,0.006 -2.27372,2.38939 -3.82556,7.5 -1.41285,4.6529 -2.80287,7.49064 -3.66917,7.49064 -0.87097,0 -2.23066,-2.81614 -3.62114,-7.5 -1.60692,-5.41293 -2.68677,-7.5 -3.8805,-7.5 -1.31704,0 -1.90963,1.78257 -2.90878,8.75 -0.69014,4.8125 -1.51879,9.82117 -1.84146,11.13038 -0.43169,1.75153 -0.21918,2.25952 0.80445,1.9229 z M 346.68031,185 c -1.93621,0 -4.54963,-0.89597 -6.04545,-2.07258 C 339.18569,181.7875 338,180.20285 338,179.40598 c 0,-0.79687 1.13256,-1.96488 2.51679,-2.59558 2.11376,-0.9631 2.73002,-0.85513 3.8483,0.67421 0.80414,1.09973 1.82881,1.51359 2.58712,1.04493 0.89,-0.55006 -0.085,-2.06061 -3.3483,-5.18763 C 340.15902,170.04092 339,168.18384 339,165.96515 c 0,-1.63182 0.89934,-3.86449 2,-4.96515 1.18637,-1.18637 3.33333,-2 5.27749,-2 1.80263,0 4.27763,0.70052 5.5,1.5567 1.22238,0.85619 2.22251,2.09795 2.22251,2.75946 0,0.66151 -0.91036,1.77128 -2.02303,2.46615 -1.47454,0.92086 -2.55904,0.97654 -4,0.20536 C 346.88964,165.40575 346,165.11125 346,165.33324 c 0,0.22198 2.025,2.4286 4.5,4.9036 3.09205,3.09205 4.5,5.33759 4.5,7.17704 0,1.50894 -1.071,3.74803 -2.45455,5.13157 C 350.89897,184.19194 348.96811,185 346.68031,185 Z m -0.31792,-2 c 1.08907,0 2.80306,-0.74474 3.80887,-1.65499 1.00581,-0.91024 1.82874,-2.89743 1.82874,-4.41597 0,-2.02647 -1.06413,-3.60379 -4,-5.92904 -2.7758,-2.19848 -4,-3.94152 -4,-5.69532 0,-2.36642 0.23867,-2.48692 3.75,-1.89337 3.49441,0.59068 3.6177,0.53011 1.80887,-0.88871 -1.06762,-0.83743 -2.60719,-1.5226 -3.42126,-1.5226 -0.81407,0 -2.30306,0.74474 -3.30887,1.65499 -1.00581,0.91024 -1.82874,2.41203 -1.82874,3.33731 0,0.92529 2.04998,3.60373 4.55552,5.95211 3.14784,2.9504 4.46111,4.93194 4.25,6.41268 -0.19356,1.35759 -1.15025,2.26266 -2.61056,2.46967 -1.26778,0.17972 -2.96615,-0.2219 -3.77417,-0.8925 -0.80802,-0.67059 -1.79504,-0.89334 -2.19338,-0.495 -0.39835,0.39834 0.14854,1.36247 1.21529,2.1425 1.06676,0.78003 2.83062,1.41824 3.91969,1.41824 z m 13.03884,2 c -1.3552,0 -2.71293,-0.64871 -3.01719,-1.44159 -0.30425,-0.79287 -0.39878,-2.25537 -0.21006,-3.25 0.20662,-1.08901 1.38287,-1.92938 2.95682,-2.11251 1.73228,-0.20154 2.83305,0.26751 3.26413,1.39088 0.35773,0.93224 0.38489,2.53158 0.0604,3.5541 -0.36484,1.1495 -1.53056,1.85912 -3.05406,1.85912 z m 0.68418,-2.55279 c 0.52097,-0.32197 0.68378,-1.01165 0.3618,-1.53262 -0.32197,-0.52097 -1.01165,-0.68378 -1.53262,-0.3618 -0.52097,0.32197 -0.68378,1.01165 -0.3618,1.53262 0.32197,0.52097 1.01165,0.68378 1.53262,0.3618 z M 367.02144,185 C 365.26555,185 364,184.47467 364,183.74579 c 0,-0.68981 1.9868,-6.42731 4.41511,-12.75 4.39772,-11.45051 4.42813,-11.49579 7.719,-11.49579 3.26203,0 3.35712,0.13303 7.50472,10.5 2.31045,5.775 4.2369,11.5125 4.28099,12.75 0.0661,1.8551 -0.4507,2.25 -2.94457,2.25 -2.30627,0 -3.25053,-0.59384 -3.97525,-2.5 -0.78754,-2.07138 -1.61302,-2.5 -4.81473,-2.5 -3.15144,0 -4.07436,0.46115 -5.00332,2.5 -0.84916,1.86372 -1.90806,2.5 -4.16051,2.5 z m 0.81804,-2 c 0.46172,0 1.35207,-1.125 1.97857,-2.5 1.00882,-2.21412 1.7521,-2.5 6.5,-2.5 4.74789,0 5.49117,0.28588 6.5,2.5 0.62649,1.375 1.59485,2.5 2.15192,2.5 0.55706,0 -0.15104,-3.0375 -1.57356,-6.75 -1.42252,-3.7125 -3.32067,-8.67585 -4.2181,-11.02967 -1.02569,-2.69019 -2.17396,-4.17523 -3.09173,-3.99849 -0.80799,0.15561 -3.135,4.52311 -5.21062,9.77967 -2.06283,5.22417 -3.77881,10.06099 -3.81328,10.74849 -0.0345,0.6875 0.31509,1.25 0.7768,1.25 z M 376,176 c -2.2,0 -4,-0.46445 -4,-1.03212 0,-0.56766 0.65204,-2.59266 1.44897,-4.5 0.79694,-1.90733 2.10292,-3.46788 2.90218,-3.46788 0.79926,0 1.94722,1.41715 2.55102,3.14922 0.60381,1.73208 1.09783,3.75708 1.09783,4.5 0,0.90924 -1.30751,1.35078 -4,1.35078 z m 0.46862,-2 c 0.89208,0 1.24351,-0.5866 0.89521,-1.49426 -0.31537,-0.82184 -0.97625,-1.24528 -1.46861,-0.94098 -0.49237,0.3043 -0.89522,0.97672 -0.89522,1.49426 0,0.51754 0.66088,0.94098 1.46862,0.94098 z m 16.93261,11 c -1.3552,0 -2.71293,-0.64871 -3.01719,-1.44159 -0.30425,-0.79287 -0.39878,-2.25537 -0.21006,-3.25 0.20662,-1.08901 1.38287,-1.92938 2.95682,-2.11251 1.73228,-0.20154 2.83305,0.26751 3.26413,1.39088 0.35773,0.93224 0.38489,2.53158 0.0604,3.5541 -0.36484,1.1495 -1.53056,1.85912 -3.05406,1.85912 z m 0.68418,-2.55279 c 0.52097,-0.32197 0.68378,-1.01165 0.3618,-1.53262 -0.32197,-0.52097 -1.01165,-0.68378 -1.53262,-0.3618 -0.52097,0.32197 -0.68378,1.01165 -0.3618,1.53262 0.32197,0.52097 1.01165,0.68378 1.53262,0.3618 z M 412,184.99252 c -2.6428,0 -5.77116,-0.77515 -7.58004,-1.8782 -1.69401,-1.03301 -3.83151,-3.46183 -4.75,-5.39739 C 398.75148,175.78138 398,173.23532 398,172.05903 c 0,-1.17629 0.85717,-3.80828 1.90483,-5.84887 1.04765,-2.04059 3.25459,-4.49766 4.90429,-5.46016 1.64971,-0.9625 4.95503,-1.74832 7.34517,-1.74626 2.56634,0.002 5.67644,0.8151 7.59571,1.9853 1.7875,1.08986 3.25,2.60808 3.25,3.37382 0,0.76574 -0.68534,1.96103 -1.52298,2.65621 -1.24163,1.03046 -2.25942,0.93186 -5.50953,-0.53373 -3.21719,-1.45075 -4.47003,-1.5774 -6.49175,-0.65624 -1.37786,0.62779 -3.0208,2.27307 -3.65098,3.65617 -0.86105,1.8898 -0.86105,3.13966 0,5.02946 0.63018,1.3831 2.27312,3.02838 3.65098,3.65617 2.02172,0.92116 3.27456,0.79451 6.49175,-0.65624 3.25011,-1.46559 4.2679,-1.56419 5.50953,-0.53373 0.83764,0.69518 1.52298,1.89047 1.52298,2.65621 0,0.76574 -1.4625,2.28396 -3.25,3.37382 -1.96875,1.20037 -5.02404,1.98156 -7.75,1.98156 z m 0.20295,-2.05591 c 1.48662,0.0349 3.84912,-0.45884 5.25,-1.09713 C 418.85383,181.2012 420,180.25306 420,179.7325 c 0,-0.52056 -0.7875,-0.60969 -1.75,-0.19806 -0.9625,0.41163 -2.99377,0.96177 -4.51394,1.22253 -1.52017,0.26077 -4.0493,-0.0583 -5.62028,-0.70901 -1.57099,-0.65073 -3.36471,-2.2989 -3.98606,-3.6626 C 403.50837,175.02165 403,173.04824 403,172 c 0,-1.04824 0.49962,-3.00245 1.11027,-4.34268 0.61065,-1.34022 2.20683,-2.9364 3.54705,-3.54705 1.34023,-0.61065 3.66548,-1.11027 5.16723,-1.11027 1.50174,0 3.70103,0.67983 4.8873,1.51072 1.39954,0.98028 2.38074,1.14849 2.79447,0.47905 0.35069,-0.56743 -0.95532,-1.69725 -2.90223,-2.51073 C 415.65717,161.66557 413.12744,161 411.98246,161 c -1.14498,0 -3.38212,0.67243 -4.97142,1.49429 -1.5893,0.82186 -3.59195,2.49699 -4.45034,3.7225 -0.85838,1.22552 -1.5607,3.86741 -1.5607,5.87086 0,2.20687 0.84275,4.71401 2.13812,6.36081 1.17596,1.495 3.08846,3.10216 4.25,3.57147 1.16153,0.46931 3.32821,0.88182 4.81483,0.91668 z M 428.40123,185 c -1.3552,0 -2.71293,-0.64871 -3.01719,-1.44159 -0.30425,-0.79287 -0.39878,-2.25537 -0.21006,-3.25 0.20662,-1.08901 1.38287,-1.92938 2.95682,-2.11251 1.73228,-0.20154 2.83305,0.26751 3.26413,1.39088 0.35773,0.93224 0.38489,2.53158 0.0604,3.5541 -0.36484,1.1495 -1.53056,1.85912 -3.05406,1.85912 z m 0.68418,-2.55279 c 0.52097,-0.32197 0.68378,-1.01165 0.3618,-1.53262 -0.32197,-0.52097 -1.01165,-0.68378 -1.53262,-0.3618 -0.52097,0.32197 -0.68378,1.01165 -0.3618,1.53262 0.32197,0.52097 1.01165,0.68378 1.53262,0.3618 z M 97.5,182.57174 c -7.838251,0.22334 -14.100862,-0.13939 -18.057633,-1.04589 -3.331699,-0.7633 -8.369076,-2.26609 -11.194172,-3.33955 -2.825095,-1.07345 -8.154147,-3.63927 -11.842336,-5.70182 -3.688189,-2.06255 -10.262002,-7.14767 -14.608473,-11.30027 -4.346471,-4.15259 -9.248467,-9.54425 -10.893324,-11.98147 -1.644857,-2.43722 -4.366727,-7.1573 -6.048599,-10.48907 -1.681872,-3.33177 -4.13739,-10.31304 -5.456706,-15.51394 C 17.678118,116.41677 17.00434,111.02352 17.015353,104.12178 17.025211,97.943706 17.739009,91.63674 19.009717,86.5 20.098173,82.1 23.075407,74.225 25.625793,69 29.660055,60.73497 31.579111,58.188892 40.388119,49.414307 49.113674,40.722849 51.825723,38.684639 60.006689,34.670193 65.22801,32.108062 72.2,29.288781 75.5,28.405124 c 3.3,-0.883656 10.850121,-1.844628 16.778046,-2.135493 9.407714,-0.461606 11.028764,-0.30195 12.750004,1.25575 1.08457,0.981527 1.97195,2.589333 1.97195,3.572903 0,0.983569 -1.00013,2.488825 -2.22251,3.345012 C 103.17088,35.568611 100.09332,36 93.671838,36 c -4.885732,0 -11.621113,0.709478 -14.967514,1.576617 -3.346401,0.86714 -7.798575,2.451142 -9.89372,3.520005 -3.809354,1.943388 -3.809354,1.943388 3.289725,10.158658 3.904494,4.518399 7.954213,9.891469 8.999376,11.940157 C 82.144867,65.244125 83,68.486254 83,70.40017 c 0,2.599813 -1.517365,5.725542 -6,12.35983 -3.3,4.883992 -6,9.77498 -6,10.868863 0,1.093883 0.616515,2.832013 1.370034,3.862511 1.076772,1.472573 3.163809,2.001384 9.75,2.470446 4.608981,0.32825 9.357568,1.14327 10.552414,1.81117 1.194846,0.6679 3.107346,2.4029 4.25,3.85555 1.574766,2.00199 2.077552,4.08133 2.077552,8.592 0,5.42126 -0.289216,6.22232 -3.25,9.0017 -1.7875,1.67798 -5.70884,4.45192 -8.714089,6.16432 -3.711368,2.11474 -6.376299,4.59247 -8.307892,7.72429 -1.809541,2.93393 -3.047672,6.58617 -3.404363,10.04217 -0.429765,4.16402 0.08087,7.69158 2.188483,15.11833 2.642501,9.31159 2.871646,9.71002 5.912457,10.28048 1.739878,0.3264 4.897746,0.44827 7.017485,0.27082 3.854072,-0.32265 3.854072,-0.32265 9.455995,-13.09846 3.081054,-7.0267 6.900144,-14.39125 8.486864,-16.36568 1.7227,-2.14365 5.47914,-4.80385 9.32435,-6.60324 5.74424,-2.68806 7.18364,-2.96012 13.33334,-2.52011 3.9686,0.28395 7.96824,1.19717 9.42566,2.1521 1.39244,0.91237 2.53171,2.40054 2.53171,3.30705 0,0.90652 -0.7178,2.44137 -1.59512,3.41079 -1.33847,1.47899 -2.69842,1.67009 -8.45238,1.1877 -4.5433,-0.3809 -7.97003,-0.13603 -10.15488,0.72563 -1.81369,0.71529 -4.51554,2.41919 -6.0041,3.78644 -1.48856,1.36726 -4.77116,7.20039 -7.29466,12.96253 -2.5235,5.76213 -4.35983,10.70496 -4.08073,10.98406 0.2791,0.2791 4.4617,-0.71851 9.29466,-2.21692 4.83297,-1.4984 10.39427,-3.61931 12.35845,-4.71313 1.99437,-1.11063 4.86442,-1.84142 6.5,-1.65508 2.61693,0.29814 2.92876,0.70632 2.92876,3.83367 0,3.35689 -0.30666,3.65272 -7.5,7.23499 -4.125,2.05425 -10.2,4.46846 -13.5,5.36491 -3.43698,0.93367 -11.12605,1.77598 -18,1.97184 z M 94,180.92742 c 4.125,0.0397 10.91778,-0.58177 15.09508,-1.38112 4.17729,-0.79934 9.93703,-2.37647 12.79941,-3.50471 2.86238,-1.12825 6.9821,-2.95831 9.15492,-4.0668 2.17283,-1.10849 3.95059,-2.65473 3.95059,-3.4361 0,-0.78136 -0.48713,-1.72172 -1.08251,-2.08968 -0.59537,-0.36797 -4.08287,0.71019 -7.75,2.3959 -3.66712,1.68571 -9.34953,3.76021 -12.62759,4.61001 -3.27805,0.84979 -7.21555,1.54508 -8.75,1.54508 -1.53444,0 -2.7899,-0.45413 -2.7899,-1.00918 0,-0.55505 2.045,-5.797 4.54445,-11.64878 2.49945,-5.85178 5.4586,-11.81015 6.5759,-13.24082 1.1173,-1.43067 3.67322,-3.60128 5.67983,-4.82358 2.0066,-1.2223 5.50216,-2.50035 7.76792,-2.84012 2.26576,-0.33977 5.86883,-0.13477 8.00682,0.45555 3.14223,0.86762 4.17015,0.79043 5.36331,-0.40273 0.92287,-0.92287 1.11735,-1.80235 0.51891,-2.34672 -0.52643,-0.47886 -2.48679,-1.38208 -4.35636,-2.00714 C 134.2312,136.51142 131.21058,136 129.38829,136 c -1.8223,0 -5.71099,0.8971 -8.64155,1.99357 -2.99679,1.12124 -6.92571,3.63726 -8.97897,5.75 -2.00788,2.06603 -5.20265,7.13143 -7.09949,11.25643 -1.89683,4.125 -4.824532,10.5375 -6.505996,14.25 -2.54867,5.62721 -3.459091,6.75 -5.473255,6.75 -1.328827,0 -4.824158,-0.45669 -7.767403,-1.01486 -2.943244,-0.55818 -5.704413,-1.36793 -6.135932,-1.79945 -0.431519,-0.43151 -1.900389,-4.58733 -3.264155,-9.23513 -1.363766,-4.64781 -2.489017,-11.05251 -2.500557,-14.23268 -0.01154,-3.18016 0.667941,-7.43094 1.509958,-9.44617 0.842017,-2.01523 2.656012,-5.1391 4.031101,-6.94194 1.375089,-1.80283 5.628588,-5.10498 9.45222,-7.3381 3.823632,-2.23312 7.409636,-4.91521 7.968898,-5.9602 C 96.542422,118.98648 97,116.17703 97,113.78825 c 0,-2.38878 -0.702317,-5.34594 -1.560704,-6.57146 -0.858388,-1.22551 -2.861041,-2.90064 -4.45034,-3.7225 C 89.242635,102.59123 85.363405,102 81.184519,102 75.703196,102 73.723496,101.57034 71.634859,99.92742 69.590764,98.319535 69,96.977903 69,93.943627 c 0,-3.139188 1.072352,-5.40576 5.432716,-11.482837 2.987994,-4.164393 5.713511,-8.85007 6.056703,-10.412616 0.367057,-1.671198 -0.0052,-4.346773 -0.903995,-6.497967 C 78.745035,63.538871 74.669518,57.877675 70.528722,52.96977 66.387925,48.061866 63,43.372444 63,42.548834 c 0,-0.823611 1.404523,-2.223781 3.121163,-3.11149 1.716639,-0.887708 7.39934,-2.699264 12.628224,-4.02568 C 84.788137,33.87981 91.106656,33 96.069208,33 c 4.348402,0 8.098812,-0.462847 8.457862,-1.043805 0.35481,-0.574093 0.10127,-1.699093 -0.56342,-2.5 C 103.10645,28.423335 100.62162,28 95.41628,28 91.379924,28 84.347524,28.872191 79.788725,29.938203 75.229926,31.004214 68.8,33.071549 65.5,34.53228 62.2,35.993011 56.488872,39.187846 52.808604,41.631913 49.128336,44.07598 43.144089,49.286914 39.510277,53.211767 35.876466,57.136619 31.290528,63.231852 29.319304,66.75673 27.34808,70.281607 24.38286,77.290839 22.729927,82.332799 20.045963,90.519721 19.722524,92.836667 19.705243,104 c -0.01379,8.91045 0.490033,14.36657 1.754489,19 0.975612,3.575 3.514274,10.1 5.641472,14.5 2.127198,4.4 6.161994,10.83341 8.966213,14.29647 2.804219,3.46305 8.098731,8.78287 11.765582,11.82181 3.66685,3.03894 10.368302,7.30048 14.892115,9.4701 4.523813,2.16961 11.723813,4.80471 16,5.85578 C 83.001301,179.99523 89.875,180.8877 94,180.92742 Z M 70.043706,171 c -0.461043,0 -4.146985,-1.66744 -8.190983,-3.70542 -5.48615,-2.76475 -9.64335,-6.00149 -16.375864,-12.75 C 38.25901,147.30958 35.608452,143.79938 32.228939,137 29.90531,132.325 27.328223,125.81796 26.50208,122.5399 25.578476,118.87514 25,111.93529 25,104.5198 25,95.399541 25.504158,90.640486 27.06826,84.996235 28.205803,80.891274 30.783469,74.375319 32.796407,70.516335 35.31671,65.684685 39.290829,60.619816 45.559691,54.25 50.566559,49.1625 55.348568,45 56.186376,45 c 0.837809,0 5.076114,4.311451 9.418456,9.581002 4.342343,5.269551 8.495306,10.713957 9.228809,12.09868 0.733502,1.384723 1.085487,3.485772 0.782188,4.668998 -0.303299,1.183226 -2.787386,5.208052 -5.520194,8.944058 -2.732807,3.736006 -5.487411,8.364324 -6.121341,10.285151 -1.00619,3.048788 -0.855468,4.091317 1.186553,8.207261 1.573211,3.171 3.485208,5.28737 5.839153,6.4633 2.25766,1.12782 5.816962,1.74899 10.027494,1.75 4.352305,10e-4 7.285744,0.53265 8.802916,1.59532 1.851067,1.29654 2.21893,2.36211 1.972506,5.71369 -0.286501,3.89667 -0.628056,4.30176 -6.302916,7.47537 -3.3,1.84549 -7.183806,4.48208 -8.630681,5.85908 -1.446874,1.377 -3.769771,4.60839 -5.161993,7.18087 C 70.315104,137.39525 68.659,142.2 68.027096,145.5 c -1.045648,5.46069 -0.917306,6.79277 1.427851,14.81983 1.417223,4.85091 2.318075,9.23841 2.001894,9.75 C 71.14066,170.58142 70.504749,171 70.043706,171 Z m -1.4341,-3.27627 c 0.138874,-0.13888 -0.644784,-3.39603 -1.741461,-7.23812 -1.442104,-5.05225 -1.838986,-8.60975 -1.434013,-12.85396 0.307969,-3.2276 1.747221,-8.51396 3.198337,-11.74748 1.520468,-3.38805 4.449498,-7.54854 6.912749,-9.81909 2.350896,-2.16698 6.564952,-5.10069 9.364569,-6.51937 C 89.29563,117.32324 90,116.55838 90,114.01834 90,112.12722 89.306564,110.69925 88.065741,110.03518 87.001899,109.46583 83.154552,109 79.516082,109 c -3.852371,0 -7.797909,-0.6115 -9.446626,-1.46408 -1.557173,-0.80525 -3.982574,-2.83239 -5.38978,-4.50476 -1.410898,-1.67675 -2.842896,-4.944902 -3.192455,-7.285914 -0.348644,-2.334885 -0.181742,-5.43091 0.370894,-6.880054 0.552635,-1.449144 3.285637,-5.760864 6.073338,-9.581598 C 70.893693,75.223641 73,71.273013 73,69.776935 73,68.195986 71.183554,65.020274 68.25,61.472459 65.6375,58.312924 61.877612,53.811945 59.894693,51.470285 56.289386,47.212721 56.289386,47.212721 50.126922,52.70207 46.737566,55.721213 41.990074,60.960851 39.576939,64.34571 37.163804,67.73057 34.04955,73.080749 32.656374,76.234998 31.263198,79.389247 29.420578,84.713092 28.561663,88.065765 27.631149,91.69792 27,98.415183 27,104.68642 c 0,6.34492 0.626375,12.94215 1.577169,16.61139 0.867443,3.34757 2.827629,8.81252 4.355968,12.14434 1.528339,3.33182 4.847695,8.8432 7.376346,12.24751 2.528651,3.40432 7.514785,8.59594 11.080299,11.53694 3.565513,2.941 8.841781,6.56281 11.725039,8.04845 2.883259,1.48565 5.355912,2.58755 5.494785,2.44868 z M 245.02144,129 C 243.26555,129 242,128.47467 242,127.74579 c 0,-0.68981 1.9868,-6.42731 4.41511,-12.75 4.40448,-11.46811 4.42311,-11.49579 7.73721,-11.49579 3.28911,0 3.36128,0.10158 7.26983,10.23172 2.17126,5.62745 4.14509,10.03438 4.38629,9.79317 0.24121,-0.2412 1.17048,-4.84548 2.06506,-10.23172 C 269.5,103.5 269.5,103.5 273,103.5 c 3.41518,0 3.54938,0.15298 5.53748,6.31246 2.03747,6.31247 2.03747,6.31247 4.05667,0 1.96302,-6.13684 2.11499,-6.31246 5.46252,-6.31246 3.4086,0 3.45543,0.0605 4.6426,6 0.65959,3.3 1.5085,9.07059 1.88645,12.82354 0.68719,6.82353 0.68719,6.82353 -2.69926,6.5 -2.9444,-0.28131 -3.42471,-0.71515 -3.67946,-3.32354 -0.16114,-1.65 -0.54635,-3.675 -0.85601,-4.5 -0.34206,-0.91133 -1.12195,0.36412 -1.98726,3.25 -1.32956,4.4342 -1.64629,4.75 -4.76403,4.75 -3.10807,0 -3.42775,-0.3142 -4.60773,-4.52868 -0.69737,-2.49077 -1.50089,-4.29574 -1.78558,-4.01104 -0.2847,0.2847 -0.79111,2.2101 -1.12536,4.27868 -0.60772,3.76104 -0.60772,3.76104 -6.85092,4.05893 -5.89262,0.28116 -6.29759,0.15481 -7.2119,-2.25 C 258.21073,124.42406 257.40635,124 254.18527,124 c -3.15144,0 -4.07436,0.46115 -5.00332,2.5 -0.84916,1.86372 -1.90806,2.5 -4.16051,2.5 z m 0.81804,-2 c 0.46172,0 1.35207,-1.125 1.97857,-2.5 1.00882,-2.21412 1.7521,-2.5 6.5,-2.5 4.74789,0 5.49117,0.28588 6.5,2.5 0.62649,1.375 1.59485,2.5 2.15192,2.5 0.55706,0 -0.15104,-3.0375 -1.57356,-6.75 -1.42252,-3.7125 -3.32067,-8.67585 -4.2181,-11.02967 -1.02569,-2.69019 -2.17396,-4.17523 -3.09173,-3.99849 -0.80799,0.15561 -3.135,4.52311 -5.21062,9.77967 -2.06283,5.22417 -3.77881,10.06099 -3.81328,10.74849 -0.0345,0.6875 0.31509,1.25 0.7768,1.25 z M 254,120 c -2.2,0 -4,-0.46445 -4,-1.03212 0,-0.56766 0.65204,-2.59266 1.44897,-4.5 0.79694,-1.90733 2.10292,-3.46788 2.90218,-3.46788 0.79926,0 1.94722,1.41715 2.55102,3.14922 0.60381,1.73208 1.09783,3.75708 1.09783,4.5 0,0.90924 -1.30751,1.35078 -4,1.35078 z m 0.46862,-2 c 0.89208,0 1.24351,-0.5866 0.89521,-1.49426 -0.31537,-0.82184 -0.97625,-1.24528 -1.46861,-0.94098 -0.49237,0.3043 -0.89522,0.97672 -0.89522,1.49426 0,0.51754 0.66088,0.94098 1.46862,0.94098 z m 14.64025,8.80328 c 0.84258,-0.27708 1.73884,-2.86931 2.27293,-6.57396 0.50791,-3.52308 1.45461,-6.3363 2.23276,-6.63491 0.95145,-0.3651 1.97631,1.54042 3.4656,6.44359 1.27918,4.21141 2.65742,6.962 3.48846,6.962 0.82856,0 2.19758,-2.71208 3.44937,-6.83333 1.25234,-4.12303 2.62069,-6.83334 3.44994,-6.83334 0.92626,0 1.58814,1.84173 2.02996,5.64847 0.36056,3.10666 1.04658,6.28113 1.52447,7.05438 0.47789,0.77324 1.12488,1.14991 1.43776,0.83703 0.31288,-0.31287 -0.20219,-5.36234 -1.1446,-11.22104 -1.324,-8.23103 -2.06599,-10.65004 -3.26449,-10.64281 -1.05822,0.006 -2.27372,2.38939 -3.82556,7.5 -1.41285,4.6529 -2.80287,7.49064 -3.66917,7.49064 -0.87097,0 -2.23066,-2.81614 -3.62114,-7.5 -1.60692,-5.41293 -2.68677,-7.5 -3.8805,-7.5 -1.31704,0 -1.90963,1.78257 -2.90878,8.75 -0.69014,4.8125 -1.51879,9.82117 -1.84146,11.13038 -0.43169,1.75153 -0.21918,2.25952 0.80445,1.9229 z M 304,129 c -6,0 -6,0 -6,-13 0,-13 0,-13 4.86514,-13 3.46803,0 5.65211,0.61903 7.60559,2.15563 2.29887,1.8083 2.65241,2.6981 2.19412,5.52223 -0.34827,2.14616 0.0329,4.37581 1.05146,6.15056 1.03556,1.80435 1.35763,3.74083 0.9153,5.50322 -0.37536,1.49558 -1.57104,3.60779 -2.65705,4.6938 C 310.44727,128.55273 308.6409,129 304,129 Z m -0.22251,-2 c 2.07763,0 4.77763,-0.70052 6,-1.5567 1.33305,-0.9337 2.22251,-2.60307 2.22251,-4.17126 0,-1.43801 -0.7464,-3.43932 -1.65866,-4.44736 -1.34693,-1.48834 -1.44595,-2.29968 -0.52684,-4.31689 0.6225,-1.36625 0.86596,-3.17692 0.54101,-4.02372 -0.32494,-0.8468 -1.40828,-1.97713 -2.40742,-2.51185 C 306.94896,105.4375 304.7519,105 303.06574,105 300,105 300,105 300,116 c 0,11 0,11 3.77749,11 z m 1.68918,-2 c -1.17334,0 -2.43334,-0.3 -2.8,-0.66667 C 302.3,123.96667 302,122.15254 302,120.30195 c 0,-2.12935 0.57414,-3.58504 1.56377,-3.96479 0.86007,-0.33005 2.66007,-0.10057 4,0.50994 1.56323,0.71226 2.43623,1.94188 2.43623,3.43146 0,1.27679 -0.54,2.86144 -1.2,3.52144 -0.66,0.66 -2.16,1.2 -3.33333,1.2 z m -1.04846,-2 c 0.23002,0 1.13002,-0.27314 2,-0.60699 C 307.2882,122.05917 308,121.20731 308,120.5 c 0,-0.70731 -0.7118,-1.55917 -1.58179,-1.89301 -0.86998,-0.33385 -1.76998,-0.60699 -2,-0.60699 -0.23001,0 -0.41821,1.125 -0.41821,2.5 0,1.375 0.1882,2.5 0.41821,2.5 z m 0.82732,-9.17986 c -1.32218,0.18775 -2.49436,-0.30501 -2.83457,-1.19159 -0.31906,-0.83145 -0.42339,-2.32551 -0.23184,-3.32014 0.2246,-1.16626 1.23113,-1.80841 2.83458,-1.80841 2.09589,0 2.4863,0.47107 2.4863,3 0,2.35154 -0.48731,3.0692 -2.25447,3.32014 z M 305,111.5 c 0.55,-0.33992 1,-1.04148 1,-1.55902 C 306,109.42344 305.55,109 305,109 c -0.55,0 -1,0.70156 -1,1.55902 0,0.85746 0.45,1.2809 1,0.94098 z m 14.5,17.5 c -3.5,0 -3.5,0 -3.5,-13 0,-13 0,-13 3.5,-13 3.5,0 3.5,0 3.5,13 0,13 0,13 -3.5,13 z m 0,-2 c 1.24242,0 1.5,-1.88889 1.5,-11 0,-9.11111 -0.25758,-11 -1.5,-11 -1.24242,0 -1.5,1.88889 -1.5,11 0,9.11111 0.25758,11 1.5,11 z m 14,2 c -7.5,0 -7.5,0 -7.5,-13 0,-13 0,-13 7.5,-13 7.5,0 7.5,0 7.5,3 0,2.88889 -0.16667,3 -4.5,3 -3.33333,0 -4.5,0.38889 -4.5,1.5 0,1.11111 1.16667,1.5 4.5,1.5 4.33333,0 4.5,0.11111 4.5,3 0,2.88889 -0.16667,3 -4.5,3 -4.13333,0 -4.5,0.2037 -4.5,2.5 0,2.2963 0.36667,2.5 4.5,2.5 4.33333,0 4.5,0.11111 4.5,3 0,3 0,3 -7.5,3 z m 0,-2 c 3.025,0 5.5,-0.42413 5.5,-0.9425 0,-0.51838 -1.9125,-1.08088 -4.25,-1.25 -4.24042,-0.30681 -4.25,-0.31652 -4.25,-4.3075 0,-3.99098 0.01,-4.00069 4.25,-4.3075 2.3375,-0.16912 4.25,-0.70575 4.25,-1.1925 0,-0.48675 -1.9125,-1.02338 -4.25,-1.1925 -3.98722,-0.28849 -4.25,-0.49299 -4.25,-3.3075 0,-2.81451 0.26278,-3.01901 4.25,-3.3075 2.3375,-0.16912 4.25,-0.73162 4.25,-1.25 0,-0.51837 -2.475,-0.9425 -5.5,-0.9425 -5.5,0 -5.5,0 -5.5,11 0,11 0,11 5.5,11 z m 12.5,2 c -3,0 -3,0 -3,-13 0,-13 0,-13 2.87067,-13 2.41519,0 3.52442,0.99166 6.99094,6.25 4.12027,6.25 4.12027,6.25 4.12933,0 C 357,103 357,103 360.5,103 c 3.5,0 3.5,0 3.5,13 0,13 0,13 -3.26109,13 -2.94269,0 -3.67299,-0.65903 -7.47991,-6.75 -4.21882,-6.75 -4.21882,-6.75 -4.23891,0 C 349,129 349,129 346,129 Z m 0,-2 c 0.57143,0 1,-3 1,-7 0,-5.53894 0.31142,-7 1.49203,-7 0.82062,0 3.58664,3.15 6.14672,7 2.56007,3.85 5.26366,7 6.00797,7 1.05569,0 1.35328,-2.41892 1.35328,-11 0,-9.11111 -0.25758,-11 -1.5,-11 -1.19048,0 -1.5,1.44444 -1.5,7 0,5.37641 -0.32897,7 -1.41833,7 -0.78008,0 -3.36758,-3.13164 -5.75,-6.95919 -2.38242,-3.82756 -4.89417,-6.97756 -5.58167,-7 C 345.32328,105.01055 345,107.8449 345,116 c 0,6.66667 0.39394,11 1,11 z m 27.16667,2 c -1.55834,0 -3.13334,-0.3 -3.5,-0.66667 C 369.3,127.96667 369,123.46667 369,118.33333 369,109.66667 368.85714,109 367,109 c -1.55556,0 -2,-0.66667 -2,-3 0,-3 0,-3 7.5,-3 7.5,0 7.5,0 7.5,3 0,2.33333 -0.44444,3 -2,3 -1.86667,0 -2,0.66667 -2,10 0,10 0,10 -2.83333,10 z m -0.13046,-2 C 373.59034,127 374,122.74952 374,117 c 0,-9.33333 0.13333,-10 2,-10 1.1,0 2,-0.45 2,-1 0,-0.55 -2.475,-1 -5.5,-1 -3.025,0 -5.5,0.4187 -5.5,0.93045 0,0.51175 1.0125,1.07425 2.25,1.25 2.13446,0.30314 2.2647,0.82023 2.53621,10.06955 0.15826,5.39113 0.71709,9.75 1.25,9.75 z m 8.98523,2 C 380.26555,129 379,128.47467 379,127.74579 c 0,-0.68981 1.9868,-6.42731 4.41511,-12.75 4.39772,-11.45051 4.42813,-11.49579 7.719,-11.49579 3.26203,0 3.35712,0.13303 7.50472,10.5 2.31045,5.775 4.2369,11.5125 4.28099,12.75 0.0661,1.8551 -0.4507,2.25 -2.94457,2.25 -2.30627,0 -3.25053,-0.59384 -3.97525,-2.5 -0.78754,-2.07138 -1.61302,-2.5 -4.81473,-2.5 -3.15144,0 -4.07436,0.46115 -5.00332,2.5 -0.84916,1.86372 -1.90806,2.5 -4.16051,2.5 z m 0.81804,-2 c 0.46172,0 1.35207,-1.125 1.97857,-2.5 1.00882,-2.21412 1.7521,-2.5 6.5,-2.5 4.74789,0 5.49117,0.28588 6.5,2.5 0.62649,1.375 1.59485,2.5 2.15192,2.5 0.55706,0 -0.15104,-3.0375 -1.57356,-6.75 -1.42252,-3.7125 -3.32067,-8.67585 -4.2181,-11.02967 -1.02569,-2.69019 -2.17396,-4.17523 -3.09173,-3.99849 -0.80799,0.15561 -3.135,4.52311 -5.21062,9.77967 -2.06283,5.22417 -3.77881,10.06099 -3.81328,10.74849 -0.0345,0.6875 0.31509,1.25 0.7768,1.25 z M 391,120 c -2.2,0 -4,-0.46445 -4,-1.03212 0,-0.56766 0.65204,-2.59266 1.44897,-4.5 0.79694,-1.90733 2.10292,-3.46788 2.90218,-3.46788 0.79926,0 1.94722,1.41715 2.55102,3.14922 0.60381,1.73208 1.09783,3.75708 1.09783,4.5 0,0.90924 -1.30751,1.35078 -4,1.35078 z m 0.46862,-2 c 0.89208,0 1.24351,-0.5866 0.89521,-1.49426 -0.31537,-0.82184 -0.97625,-1.24528 -1.46861,-0.94098 C 390.40285,115.86906 390,116.54148 390,117.05902 390,117.57656 390.66088,118 391.46862,118 Z M 412.5,129 c -6.5,0 -6.5,0 -6.5,-13 0,-13 0,-13 3,-13 3,0 3,0 3,10 0,10 0,10 3.5,10 3.22222,0 3.5,0.2381 3.5,3 0,3 0,3 -6.5,3 z m 0,-2 c 2.475,0 4.5,-0.42149 4.5,-0.93664 0,-0.51515 -1.4625,-1.07765 -3.25,-1.25 C 410.5,124.5 410.5,124.5 410.21379,114.75 410.05553,109.35887 409.4967,105 408.96379,105 408.40382,105 408,109.60887 408,116 c 0,11 0,11 4.5,11 z m 15,2 c -7.5,0 -7.5,0 -7.5,-13 0,-13 0,-13 7.5,-13 7.5,0 7.5,0 7.5,3 0,2.88889 -0.16667,3 -4.5,3 -3.33333,0 -4.5,0.38889 -4.5,1.5 0,1.11111 1.16667,1.5 4.5,1.5 4.33333,0 4.5,0.11111 4.5,3 0,2.88889 -0.16667,3 -4.5,3 -4.13333,0 -4.5,0.2037 -4.5,2.5 0,2.2963 0.36667,2.5 4.5,2.5 4.33333,0 4.5,0.11111 4.5,3 0,3 0,3 -7.5,3 z m 0,-2 c 3.025,0 5.5,-0.42413 5.5,-0.9425 0,-0.51838 -1.9125,-1.08088 -4.25,-1.25 -4.24042,-0.30681 -4.25,-0.31652 -4.25,-4.3075 0,-3.99098 0.01,-4.00069 4.25,-4.3075 2.3375,-0.16912 4.25,-0.70575 4.25,-1.1925 0,-0.48675 -1.9125,-1.02338 -4.25,-1.1925 -3.98722,-0.28849 -4.25,-0.49299 -4.25,-3.3075 0,-2.81451 0.26278,-3.01901 4.25,-3.3075 2.3375,-0.16912 4.25,-0.73162 4.25,-1.25 0,-0.51837 -2.475,-0.9425 -5.5,-0.9425 -5.5,0 -5.5,0 -5.5,11 0,11 0,11 5.5,11 z m 17.18031,2 c -1.93621,0 -4.54963,-0.89597 -6.04545,-2.07258 C 437.18569,125.7875 436,124.20285 436,123.40598 c 0,-0.79687 1.13256,-1.96488 2.51679,-2.59558 2.11376,-0.9631 2.73002,-0.85513 3.8483,0.67421 0.80414,1.09973 1.82881,1.51359 2.58712,1.04493 0.89,-0.55006 -0.085,-2.06061 -3.3483,-5.18763 C 438.15902,114.04092 437,112.18384 437,109.96515 c 0,-1.63182 0.89934,-3.86449 2,-4.96515 1.18637,-1.18637 3.33333,-2 5.27749,-2 1.80263,0 4.27763,0.70052 5.5,1.5567 1.22238,0.85619 2.22251,2.09795 2.22251,2.75946 0,0.66151 -0.91036,1.77128 -2.02303,2.46615 -1.47454,0.92086 -2.55904,0.97654 -4,0.20536 C 444.88964,109.40575 444,109.11125 444,109.33324 c 0,0.22198 2.025,2.4286 4.5,4.9036 3.09205,3.09205 4.5,5.33759 4.5,7.17704 0,1.50894 -1.071,3.74803 -2.45455,5.13157 C 448.89897,128.19194 446.96811,129 444.68031,129 Z m -0.31792,-2 c 1.08907,0 2.80306,-0.74474 3.80887,-1.65499 1.00581,-0.91024 1.82874,-2.89743 1.82874,-4.41597 0,-2.02647 -1.06413,-3.60379 -4,-5.92904 -2.7758,-2.19848 -4,-3.94152 -4,-5.69532 0,-2.36642 0.23867,-2.48692 3.75,-1.89337 3.49441,0.59068 3.6177,0.53011 1.80887,-0.88871 -1.06762,-0.83743 -2.60719,-1.5226 -3.42126,-1.5226 -0.81407,0 -2.30306,0.74474 -3.30887,1.65499 -1.00581,0.91024 -1.82874,2.41203 -1.82874,3.33731 0,0.92529 2.04998,3.60373 4.55552,5.95211 3.14784,2.9504 4.46111,4.93194 4.25,6.41268 -0.19356,1.35759 -1.15025,2.26266 -2.61056,2.46967 -1.26778,0.17972 -2.96615,-0.2219 -3.77417,-0.8925 -0.80802,-0.67059 -1.79504,-0.89334 -2.19338,-0.495 -0.39835,0.39834 0.14854,1.36247 1.21529,2.1425 1.06676,0.78003 2.83062,1.41824 3.91969,1.41824 z M 250.68031,74 c -1.93621,0 -4.54963,-0.895966 -6.04545,-2.07258 C 243.18569,70.787501 242,69.202853 242,68.405981 c 0,-0.796872 1.13256,-1.964886 2.51679,-2.595586 2.11376,-0.963093 2.73002,-0.855126 3.8483,0.674214 0.80414,1.09973 1.82881,1.513589 2.58712,1.044926 0.89,-0.550051 -0.085,-2.060608 -3.3483,-5.187623 C 244.15902,59.040915 243,57.183835 243,54.965152 243,53.333333 243.89934,51.100664 245,50 c 1.18637,-1.18637 3.33333,-2 5.27749,-2 1.80263,0 4.27763,0.700517 5.5,1.556704 1.22238,0.856187 2.22251,2.097941 2.22251,2.759453 0,0.661512 -0.91036,1.771281 -2.02303,2.466154 -1.47454,0.920863 -2.55904,0.976543 -4,0.205363 C 250.88964,54.405751 250,54.111255 250,54.333237 c 0,0.221983 2.025,2.428605 4.5,4.903605 3.09205,3.092047 4.5,5.337586 4.5,7.177034 0,1.508949 -1.071,3.748038 -2.45455,5.131579 C 254.89897,73.191939 252.96811,74 250.68031,74 Z m -0.31792,-2 c 1.08907,0 2.80306,-0.744744 3.80887,-1.654988 C 255.17707,69.434769 256,67.447582 256,65.929042 256,63.902571 254.93587,62.325251 252,60 c -2.7758,-2.198477 -4,-3.941525 -4,-5.69532 0,-2.366416 0.23867,-2.486918 3.75,-1.893375 3.49441,0.590684 3.6177,0.530112 1.80887,-0.888709 C 252.49125,50.685168 250.95168,50 250.13761,50 c -0.81407,0 -2.30306,0.744744 -3.30887,1.654988 C 245.82293,52.565231 245,54.067023 245,54.992305 c 0,0.925281 2.04998,3.603728 4.55552,5.952104 3.14784,2.950397 4.46111,4.931941 4.25,6.412682 -0.19356,1.357593 -1.15025,2.262659 -2.61056,2.469673 -1.26778,0.17972 -2.96615,-0.221905 -3.77417,-0.892501 -0.80802,-0.670595 -1.79504,-0.893347 -2.19338,-0.495003 -0.39835,0.398344 0.14854,1.36247 1.21529,2.142501 C 247.50946,71.361792 249.27332,72 250.36239,72 Z M 268.5,74 c -7.5,0 -7.5,0 -7.5,-13 0,-13 0,-13 7.5,-13 7.5,0 7.5,0 7.5,3 0,2.888889 -0.16667,3 -4.5,3 -3.33333,0 -4.5,0.388889 -4.5,1.5 0,1.111111 1.16667,1.5 4.5,1.5 4.33333,0 4.5,0.111111 4.5,3 0,2.888889 -0.16667,3 -4.5,3 -4.13333,0 -4.5,0.203704 -4.5,2.5 0,2.296296 0.36667,2.5 4.5,2.5 4.33333,0 4.5,0.111111 4.5,3 0,3 0,3 -7.5,3 z m 0,-2 c 3.025,0 5.5,-0.424126 5.5,-0.942502 0,-0.518376 -1.9125,-1.080876 -4.25,-1.25 -4.24042,-0.306805 -4.25,-0.316517 -4.25,-4.307498 0,-3.990981 0.01,-4.000693 4.25,-4.307498 C 272.0875,61.023378 274,60.486752 274,60 274,59.513248 272.0875,58.976622 269.75,58.807498 265.76278,58.519013 265.5,58.31451 265.5,55.5 c 0,-2.81451 0.26278,-3.019013 4.25,-3.307498 2.3375,-0.169124 4.25,-0.731624 4.25,-1.25 C 274,50.424126 271.525,50 268.5,50 263,50 263,50 263,61 c 0,11 0,11 5.5,11 z m 12.74563,1.813358 C 278,74.126717 278,74.126717 278,61.063358 278,48 278,48 284,48 c 4.66667,0 6.44444,0.444444 8,2 1.24022,1.24022 2,3.333333 2,5.509787 0,2.231883 -0.70388,4.112466 -1.93321,5.165052 -1.90398,1.630241 -1.89642,1.727853 0.5,6.456969 C 293.90506,69.772745 295,72.398472 295,72.966756 295,73.53504 293.47959,74 291.62132,74 c -2.86736,0 -3.58364,-0.491842 -4.73302,-3.25 -1.35434,-3.25 -1.35434,-3.25 -1.87569,-0.25 -0.43809,2.520847 -1.03974,3.050049 -3.76698,3.313358 z M 281,72 c 0.55,0 1,-2.25 1,-5 0,-4.177573 0.30085,-5 1.82906,-5 1.21596,0 2.61406,1.676006 4.17094,5 1.28803,2.75 2.71495,5 3.17094,5 C 291.62692,72 292,71.757073 292,71.460162 292,71.163251 291.1,69.156178 290,67 c -1.1,-2.156178 -2,-4.505005 -2,-5.219615 0,-0.71461 0.9,-1.861351 2,-2.548312 1.1104,-0.693457 2,-2.332028 2,-3.683843 0,-1.382458 -0.9606,-3.107651 -2.22251,-3.991526 C 288.55512,50.700517 285.85512,50 283.77749,50 280,50 280,50 280,61 c 0,6.666667 0.39394,11 1,11 z m 4.34617,-13 c -1.32492,0 -2.65787,-0.648714 -2.96213,-1.441587 -0.30425,-0.792872 -0.39647,-2.255372 -0.20492,-3.25 0.23974,-1.244854 1.24493,-1.808413 3.22559,-1.808413 1.59797,0 3.34462,0.740836 3.92831,1.666177 0.7627,1.209122 0.69043,2.100643 -0.26345,3.25 C 288.34662,58.28728 286.67109,59 285.34617,59 Z M 286,57 c 0.55,0 1,-0.675 1,-1.5 0,-0.825 -0.45,-1.5 -1,-1.5 -0.55,0 -1,0.675 -1,1.5 0,0.825 0.45,1.5 1,1.5 z m 20.55509,17 C 303.3898,74 303.3496,73.934881 299.18622,62.064136 296.8838,55.499411 295,49.6209 295,49.000778 c 0,-0.668606 1.31447,-0.999959 3.22967,-0.814136 2.98928,0.290034 3.42484,0.822157 5.85175,7.148993 2.62208,6.835635 2.62208,6.835635 5.02033,0 2.24443,-6.397195 2.60671,-6.855734 5.64825,-7.148993 2.32166,-0.22385 3.25,0.102417 3.25,1.142217 0,0.800567 -1.85901,6.679078 -4.13113,13.063358 C 309.77128,73.905784 309.71191,74 306.55509,74 Z m -0.006,-2 c 0.70682,0 1.98957,-1.9125 2.85055,-4.25 0.86099,-2.3375 2.64235,-7.2875 3.95859,-11 1.5366,-4.334007 1.98405,-6.75 1.25013,-6.75 -0.62867,0 -2.42216,3.6 -3.98552,8 -1.56336,4.4 -3.39026,8 -4.05976,8 -0.66951,0 -2.47049,-3.6 -4.00217,-8 -1.53169,-4.4 -3.18457,-8 -3.67308,-8 -0.48851,0 -0.89237,0.3375 -0.89747,0.75 -0.005,0.4125 1.62938,5.3625 3.63217,11 2.05829,5.793716 4.20016,10.25 4.92656,10.25 z M 323.5,74 c -3.5,0 -3.5,0 -3.5,-13 0,-13 0,-13 3.5,-13 3.5,0 3.5,0 3.5,13 0,13 0,13 -3.5,13 z m 0,-2 c 1.24242,0 1.5,-1.888889 1.5,-11 0,-9.111111 -0.25758,-11 -1.5,-11 -1.24242,0 -1.5,1.888889 -1.5,11 0,9.111111 0.25758,11 1.5,11 z m 18.5,1.992524 c -2.6428,0 -5.77116,-0.775153 -7.58004,-1.878202 -1.69401,-1.033011 -3.83151,-3.461837 -4.75,-5.397391 C 328.75148,64.781377 328,62.235323 328,61.059033 c 0,-1.17629 0.85717,-3.808282 1.90483,-5.848871 1.04765,-2.040589 3.25459,-4.497662 4.90429,-5.460162 1.64971,-0.9625 4.95503,-1.748318 7.34517,-1.746262 2.56634,0.0022 5.67644,0.815098 7.59571,1.985302 1.7875,1.08986 3.25,2.608077 3.25,3.373817 0,0.765739 -0.68534,1.961035 -1.52298,2.656212 -1.24163,1.030462 -2.25942,0.931864 -5.50953,-0.533728 -3.21719,-1.450749 -4.47003,-1.577398 -6.49175,-0.656241 -1.37786,0.627794 -3.0208,2.273071 -3.65098,3.656172 -0.86105,1.889797 -0.86105,3.139659 0,5.029456 0.63018,1.383101 2.27312,3.028378 3.65098,3.656172 2.02172,0.921157 3.27456,0.794508 6.49175,-0.656241 3.25011,-1.465592 4.2679,-1.56419 5.50953,-0.533728 0.83764,0.695177 1.52298,1.890473 1.52298,2.656212 0,0.76574 -1.4625,2.283957 -3.25,3.373817 -1.96875,1.200372 -5.02404,1.981564 -7.75,1.981564 z m 0.20295,-2.05591 c 1.48662,0.03486 3.84912,-0.458846 5.25,-1.097129 C 348.85383,70.201202 350,69.253057 350,68.732496 c 0,-0.52056 -0.7875,-0.609685 -1.75,-0.198056 -0.9625,0.41163 -2.99377,0.961771 -4.51394,1.222535 -1.52017,0.260764 -4.0493,-0.05829 -5.62028,-0.709018 -1.57099,-0.650724 -3.36471,-2.298893 -3.98606,-3.662599 C 333.50837,64.021653 333,62.048242 333,61 c 0,-1.048242 0.49962,-3.002445 1.11027,-4.342675 0.61065,-1.34023 2.20683,-2.936404 3.54705,-3.547053 C 338.99755,52.499622 341.3228,52 342.82455,52 c 1.50174,0 3.70103,0.679826 4.8873,1.510724 1.39954,0.980279 2.38074,1.148481 2.79447,0.479044 0.35069,-0.567424 -0.95532,-1.69725 -2.90223,-2.510724 C 345.65717,50.66557 343.12744,50 341.98246,50 c -1.14498,0 -3.38212,0.67243 -4.97142,1.494289 -1.5893,0.821859 -3.59195,2.496986 -4.45034,3.722506 -0.85838,1.22552 -1.5607,3.867403 -1.5607,5.870853 0,2.206874 0.84275,4.714016 2.13812,6.36081 1.17596,1.494997 3.08846,3.10216 4.25,3.571473 1.16153,0.469313 3.32821,0.88182 4.81483,0.916683 z M 358.5,74 c -3.5,0 -3.5,0 -3.5,-13 0,-13 0,-13 3.5,-13 3.5,0 3.5,0 3.5,13 0,13 0,13 -3.5,13 z m 0,-2 c 1.24242,0 1.5,-1.888889 1.5,-11 0,-9.111111 -0.25758,-11 -1.5,-11 -1.24242,0 -1.5,1.888889 -1.5,11 0,9.111111 0.25758,11 1.5,11 z m 18.86765,1.983153 c -3.17141,-0.01098 -5.97941,-0.728987 -8.05803,-2.060452 -1.99371,-1.277078 -3.82633,-3.708816 -4.88586,-6.483153 -1.59492,-4.176248 -1.59445,-4.70407 0.008,-8.899699 1.14443,-2.996655 2.85063,-5.169212 5.19981,-6.621085 2.78738,-1.722696 4.53562,-2.061083 8.62049,-1.668579 4.29497,0.412693 5.65989,1.077093 8.43604,4.106399 2.84971,3.109564 3.31203,4.330464 3.31203,8.746378 0,4.628467 -0.38115,5.513481 -3.88235,9.014685 -3.45463,3.454626 -4.41863,3.880497 -8.75,3.865506 z M 377,71.932876 c 1.375,0.03281 3.93378,-0.81459 5.68618,-1.883103 1.7524,-1.068513 3.71545,-2.931701 4.36233,-4.140418 0.66844,-1.248997 0.93852,-3.969369 0.62566,-6.301948 -0.36566,-2.726147 -1.42665,-4.857913 -3.1598,-6.348705 -1.43511,-1.234433 -3.71294,-2.52142 -5.06183,-2.859971 -1.3489,-0.338551 -3.6352,-0.318718 -5.08067,0.04407 -1.44548,0.362791 -3.92048,1.951959 -5.5,3.531485 C 366.68074,56.165418 366,57.780565 366,60.788218 c 0,2.512751 0.77524,4.927621 2.13812,6.66024 1.17596,1.494997 3.08846,3.10216 4.25,3.571473 1.16153,0.469313 3.23688,0.880138 4.61188,0.912945 z m 0.32692,-2.000556 c -1.5548,-0.03722 -3.78808,-0.533084 -4.96284,-1.10191 -1.17475,-0.568826 -2.63725,-2.134544 -3.25,-3.479373 C 368.50134,64.006209 368,62.048242 368,61 c 0,-1.048242 0.49962,-3.002445 1.11027,-4.342675 0.61065,-1.34023 2.20683,-2.936404 3.54705,-3.547053 C 373.99755,52.499622 376.23255,52 377.62398,52 c 1.46283,0 3.76274,1.232875 5.45294,2.923077 C 385.07192,56.918074 386,58.847503 386,61 c 0,2.152497 -0.92808,4.081926 -2.92308,6.076923 -1.91549,1.915496 -3.89751,2.899748 -5.75,2.855397 z M 376.73204,68 c 1.00262,0 2.82308,-0.700517 4.04545,-1.556704 C 382.41477,65.296505 383,63.880482 383,61.065741 c 0,-2.101468 -0.56502,-4.289774 -1.25559,-4.862902 -0.69058,-0.573128 -2.46794,-1.346328 -3.94968,-1.718223 -2.10462,-0.528226 -3.25209,-0.118164 -5.24441,1.874152 C 371.14765,57.761445 370,59.85 370,61 c 0,1.15 1.10455,3.195455 2.45455,4.545455 1.35,1.35 3.27487,2.454545 4.27749,2.454545 z m 21.94827,6 c -1.93621,0 -4.54963,-0.895966 -6.04545,-2.07258 C 391.18569,70.787501 390,69.202853 390,68.405981 c 0,-0.796872 1.13256,-1.964886 2.51679,-2.595586 2.11376,-0.963093 2.73002,-0.855126 3.8483,0.674214 0.80414,1.09973 1.82881,1.513589 2.58712,1.044926 0.89,-0.550051 -0.085,-2.060608 -3.3483,-5.187623 C 392.15902,59.040915 391,57.183835 391,54.965152 391,53.333333 391.89934,51.100664 393,50 c 1.18637,-1.18637 3.33333,-2 5.27749,-2 1.80263,0 4.27763,0.700517 5.5,1.556704 1.22238,0.856187 2.22251,2.097941 2.22251,2.759453 0,0.661512 -0.91036,1.771281 -2.02303,2.466154 -1.47454,0.920863 -2.55904,0.976543 -4,0.205363 C 398.88964,54.405751 398,54.111255 398,54.333237 c 0,0.221983 2.025,2.428605 4.5,4.903605 3.09205,3.092047 4.5,5.337586 4.5,7.177034 0,1.508949 -1.071,3.748038 -2.45455,5.131579 C 402.89897,73.191939 400.96811,74 398.68031,74 Z m -0.31792,-2 c 1.08907,0 2.80306,-0.744744 3.80887,-1.654988 C 403.17707,69.434769 404,67.447582 404,65.929042 404,63.902571 402.93587,62.325251 400,60 c -2.7758,-2.198477 -4,-3.941525 -4,-5.69532 0,-2.366416 0.23867,-2.486918 3.75,-1.893375 3.49441,0.590684 3.6177,0.530112 1.80887,-0.888709 C 400.49125,50.685168 398.95168,50 398.13761,50 c -0.81407,0 -2.30306,0.744744 -3.30887,1.654988 C 393.82293,52.565231 393,54.067023 393,54.992305 c 0,0.925281 2.04998,3.603728 4.55552,5.952104 3.14784,2.950397 4.46111,4.931941 4.25,6.412682 -0.19356,1.357593 -1.15025,2.262659 -2.61056,2.469673 -1.26778,0.17972 -2.96615,-0.221905 -3.77417,-0.892501 -0.80802,-0.670595 -1.79504,-0.893347 -2.19338,-0.495003 -0.39835,0.398344 0.14854,1.36247 1.21529,2.142501 C 395.50946,71.361792 397.27332,72 398.36239,72 Z M 148.5,73 c -1.155,0 -2.64,-0.54 -3.3,-1.2 -0.66,-0.66 -1.2,-3.399573 -1.2,-6.087941 0,-4.554871 -0.36886,-5.271785 -5.41323,-10.52101 -5.41322,-5.63307 -5.41322,-5.63307 -6.05379,-1.662059 -0.35231,2.184055 -0.99981,4.64601 -1.4389,5.47101 -0.43908,0.825 -1.70879,1.636448 -2.82156,1.803217 -1.11278,0.166769 -2.81071,-0.484265 -3.77319,-1.446743 -1.45734,-1.457341 -1.64713,-2.856346 -1.13501,-8.366529 0.33822,-3.639113 1.50863,-9.214108 2.60091,-12.388878 1.09228,-3.174769 3.40773,-8.25729 5.14544,-11.294491 1.73771,-3.0372 5.85028,-8.39867 9.13906,-11.914379 C 143.5385,11.876489 147.00389,9 147.95059,9 c 0.94671,0 4.64282,3.0375 8.21357,6.75 3.57076,3.7125 7.77175,8.946193 9.33552,11.63043 1.56378,2.684236 3.89108,7.767206 5.17178,11.295489 1.57507,4.339258 2.32854,8.6007 2.32854,13.16957 0,3.920175 -0.50355,7.258056 -1.2,7.954511 -0.66,0.66 -2.21917,1.2 -3.46482,1.2 -1.24565,0 -2.67502,-0.7875 -3.17638,-1.75 -0.50137,-0.9625 -1.21751,-4.689397 -1.59143,-8.281993 -0.37393,-3.592597 -1.08616,-7.189387 -1.58274,-7.992868 -0.73144,-1.183509 -1.67008,-0.711711 -4.94375,2.484941 C 153,49.405896 153,49.405896 153,60.002948 c 0,6.908818 -0.41765,11.014704 -1.2,11.797052 -0.66,0.66 -2.145,1.2 -3.3,1.2 z m -0.53333,-2 c 0.34833,0 1.17333,-0.54 1.83333,-1.2 0.77472,-0.774723 1.2,-4.77502 1.2,-11.287592 0,-10.087592 0,-10.087592 4.92298,-14.936545 2.95122,-2.906843 5.49847,-4.628115 6.35984,-4.297577 0.79027,0.303256 1.94993,2.58897 2.57702,5.079364 0.62709,2.490395 1.14016,6.298621 1.14016,8.462725 0,2.224986 0.63276,4.459877 1.4562,5.14327 0.8009,0.664694 1.98118,0.884071 2.62284,0.487504 0.79225,-0.489637 1.0139,-3.10121 0.69068,-8.137766 -0.40451,-6.303091 -1.18602,-8.847042 -5.20476,-16.942389 C 162.23633,26.6658 158.95752,21.869624 154.49129,17.17267 148.1464,10.5 148.1464,10.5 143.9453,14.5 c -2.31061,2.2 -6.31893,7.205933 -8.90738,11.124294 -2.58845,3.918362 -5.72972,10.307184 -6.98058,14.197382 -1.25087,3.890198 -2.33799,9.459266 -2.41582,12.375706 -0.12545,4.700588 0.10009,5.337084 1.98656,5.606193 1.88543,0.268959 2.2072,-0.329664 2.82196,-5.25 C 130.83985,49.433602 131.64835,47 132.29505,47 c 0.63313,0 3.97575,2.7995 7.42804,6.221112 6.07272,6.018739 6.27691,6.387411 6.27691,11.333333 0,2.811722 0.3,5.412222 0.66667,5.778888 C 147.03333,70.7 147.61833,71 147.96667,71 Z M 144.4717,49.677637 c -0.56557,0.187677 -3.15307,-1.815972 -5.75,-4.452553 C 136.12476,42.588504 134,39.871426 134,39.187134 c 0,-0.684292 1.33347,-3.818835 2.96326,-6.965651 1.6298,-3.146816 3.8555,-6.846483 4.94601,-8.221483 1.42246,-1.793545 2.28938,-2.19449 3.06788,-1.418862 0.69859,0.696029 0.98498,5.653789 0.80399,13.918204 -0.16764,7.654653 -0.69627,12.974822 -1.30944,13.178295 z m -0.6718,-8.12126 c 0.16495,-3.056007 0.16495,-8.072245 0,-11.147195 -0.2999,-5.590818 -0.2999,-5.590818 -4.16752,1.587382 -3.86762,7.1782 -3.86762,7.1782 0,11.147195 3.86762,3.968995 3.86762,3.968995 4.16752,-1.587382 z M 152.19528,39 C 151.36199,39 151,36.425802 151,30.5 c 0,-4.964232 0.41336,-8.5 0.99373,-8.5 0.54655,0 2.34655,1.867517 4,4.150038 1.65345,2.282522 3.00627,4.898331 3.00627,5.812909 0,0.914579 -1.26212,2.872062 -2.80472,4.349962 -1.54259,1.4779 -3.34259,2.687091 -4,2.687091 z M 155,34.5 c 1.1,-0.995486 1.98999,-2.077731 1.97776,-2.404988 C 156.96553,31.767756 156.07554,30.375 155,29 c -1.95553,-2.5 -1.95553,-2.5 -1.97776,2.404988 -0.022,4.842092 0.003,4.881778 1.97776,3.095012 z m -37.57874,4.469591 c -0.50669,-0.01672 -1.70876,-0.489085 -2.67126,-1.04969 -0.9625,-0.560605 -1.75,-2.052176 -1.75,-3.314604 0,-1.262427 0.90183,-3.111465 2.00406,-4.108973 1.65591,-1.498576 2.43767,-1.616088 4.5,-0.676427 1.63773,0.7462 2.49594,1.950909 2.49594,3.503677 0,1.301548 -0.82293,3.111195 -1.82874,4.021438 -1.00581,0.910244 -2.24331,1.641304 -2.75,1.624579 z m 0.33911,-3.164223 c 0.86564,-0.167952 1.76111,-0.867631 1.98992,-1.554842 0.22882,-0.687211 -0.32664,-1.534463 -1.23435,-1.882783 -0.90771,-0.348319 -2.12092,-0.162765 -2.69603,0.412342 -0.5751,0.575108 -0.7279,1.559776 -0.33954,2.188151 0.38836,0.628376 1.41436,1.005085 2.28,0.837132 z"
       id="path3" />
  </g>
</svg>
